<svg xmlns="http://www.w3.org/2000/svg" version="1.1" xmlns:xlink="http://www.w3.org/1999/xlink" xmlns:svgjs="http://svgjs.com/svgjs" width="1920" height="1080" preserveAspectRatio="none" viewBox="0 0 1920 1080"><g mask="url(&quot;#SvgjsMask1055&quot;)" fill="none"><rect width="1920" height="1080" x="0" y="0" fill="rgba(33, 37, 41, 1)"></rect><path d="M1238.83 169.7L1301.84 169.7L1301.84 232.71L1238.83 232.71z" stroke="rgba(255, 87, 34, 1)"></path><path d="M1743.33 997.91L1823.43 997.91L1823.43 1078.01L1743.33 1078.01z" fill="rgba(60, 255, 34, 1)"></path><path d="M1877.45 959.51L1956.13 959.51L1956.13 1038.19L1877.45 1038.19z" fill="rgba(60, 255, 34, 1)"></path><path d="M548.22 371.81a60.37 60.37 0 1 0-116.93 30.11z" stroke="rgba(60, 255, 34, 1)"></path><path d="M1030.15 315.23L1058.31 315.23L1058.31 343.39L1030.15 343.39z" fill="rgba(255, 87, 34, 1)"></path><path d="M918.75 929.86L981.21 929.86L981.21 992.32L918.75 992.32z" fill="rgba(220, 53, 69, 1)"></path><path d="M148.69 607.02L169.4 607.02L169.4 627.66L148.69 627.66z" fill="rgba(220, 53, 69, 1)"></path><path d="M1615.64 984.22 a5.06 5.06 0 1 0 10.12 0 a5.06 5.06 0 1 0 -10.12 0z" fill="rgba(60, 255, 34, 1)"></path><path d="M1483.26 782.98a82.14 82.14 0 1 0 133.12 96.27z" fill="rgba(255, 87, 34, 1)"></path><path d="M532.36 842.64a50.08 50.08 0 1 0 65.24-76z" stroke="rgba(60, 255, 34, 1)"></path><path d="M249.04 80.83a51.21 51.21 0 1 0 101.84 10.9z" fill="rgba(255, 87, 34, 1)"></path><path d="M290.57 283.79 a61.93 61.93 0 1 0 123.86 0 a61.93 61.93 0 1 0 -123.86 0z" stroke="rgba(220, 53, 69, 1)"></path><path d="M1864.43 7.33a38.93 38.93 0 1 0-77.4-8.48z" fill="rgba(255, 87, 34, 1)"></path><path d="M307.47 796.31a49.54 49.54 0 1 0 10.3 98.54z" fill="rgba(255, 87, 34, 1)"></path><path d="M1644.45 455.71L1715.03 455.71L1715.03 465.25L1644.45 465.25z" fill="rgba(220, 53, 69, 1)"></path><path d="M584.68 647.11L610.71 647.11L610.71 721.32L584.68 721.32z" fill="rgba(60, 255, 34, 1)"></path><path d="M1016.09 115.14a70.58 70.58 0 1 0 4.46-141.09z" stroke="rgba(220, 53, 69, 1)"></path><path d="M978.73 694.11a47.92 47.92 0 1 0-53.17-79.74z" fill="rgba(255, 87, 34, 1)"></path><path d="M1046.95 905.76L1110.29 905.76L1110.29 969.1L1046.95 969.1z" fill="rgba(255, 87, 34, 1)"></path><path d="M1244.24 266.09L1260.09 266.09L1260.09 318.54L1244.24 318.54z" stroke="rgba(220, 53, 69, 1)"></path><path d="M554.23 349.94L620.07 349.94L620.07 415.78L554.23 415.78z" fill="rgba(60, 255, 34, 1)"></path><path d="M729.03 262.47a106.9 106.9 0 1 0 212.34 24.88z" fill="rgba(255, 87, 34, 1)"></path><path d="M280.8 354.12L341.74 354.12L341.74 407.35L280.8 407.35z" fill="rgba(220, 53, 69, 1)"></path></g><defs><mask id="SvgjsMask1055"><rect width="1920" height="1080" fill="#ffffff"></rect></mask></defs></svg>